<?xml version="1.0" encoding="utf-8"?>
<!-- Generator: Adobe Illustrator 18.1.1, SVG Export Plug-In . SVG Version: 6.00 Build 0)  -->
<svg version="1.1" id="svg2" xmlns:svg="http://www.w3.org/2000/svg"
	 xmlns="http://www.w3.org/2000/svg" xmlns:xlink="http://www.w3.org/1999/xlink" x="0px" y="0px" viewBox="0 0 30 30"
	 enable-background="new 0 0 30 30" xml:space="preserve">
<g id="g12" transform="matrix(1.25,0,0,-1.25,0,47.5)">
	<g id="g14">
		<g>
			<defs>
				<rect id="SVGID_1_" x="-3" y="11" width="30" height="30"/>
			</defs>
			<clipPath id="SVGID_2_">
				<use xlink:href="#SVGID_1_"  overflow="visible"/>
			</clipPath>
			<g id="g16" clip-path="url(#SVGID_2_)">
				<g id="g22" transform="translate(37,19)">
					<path id="path24" fill="#FFCC4D" d="M-13.6,7c0-6.3-5.1-11.4-11.4-11.4c-6.3,0-11.4,5.1-11.4,11.4c0,6.3,5.1,11.4,11.4,11.4
						C-18.7,18.4-13.6,13.3-13.6,7"/>
				</g>
				<g id="g26" transform="translate(35,14)">
					<path id="path28" fill="#FF7892" d="M-12.9,8.8c0-1.7-1.4-3.2-3.2-3.2c-1.7,0-3.2,1.4-3.2,3.2s1.4,3.2,3.2,3.2
						C-14.3,12-12.9,10.6-12.9,8.8"/>
				</g>
				<g id="g30" transform="translate(13,14)">
					<path id="path32" fill="#FF7892" d="M-4.8,8.8c0-1.7-1.4-3.2-3.2-3.2s-3.2,1.4-3.2,3.2S-9.7,12-7.9,12S-4.8,10.6-4.8,8.8"/>
				</g>
				<g id="g50" transform="translate(23,7)">
					<path id="path52" fill="#664500" d="M-8.5,11.4h-5.1c-0.3,0-0.6,0.3-0.6,0.6s0.3,0.6,0.6,0.6h5.1c0.3,0,0.6-0.3,0.6-0.6
						S-8.1,11.4-8.5,11.4"/>
				</g>
				<g id="g38" transform="translate(12,27)">
					<path id="path40" fill="#5DADEC" d="M-4.4,4.1c0-1.7-1.4-3.2-3.2-3.2c-1.7,0-3.2,1.4-3.2,3.2s2.5,6.3,3.2,6.3S-4.4,5.8-4.4,4.1
						"/>
				</g>
				<g id="g26_1_" transform="translate(29.457,20.2031)">
					<path id="path28_1_" fill="#664500" d="M-10.9,6.6c0,0.1-0.9,2.1-2.8,2.1c-1.9,0-2.8-2-2.8-2.1c-0.1-0.1,0-0.3,0.1-0.4
						c0.1-0.1,0.3-0.1,0.4,0c0,0,0.8,0.6,2.3,0.6c1.5,0,2.3-0.6,2.3-0.6c0.1,0,0.1-0.1,0.2-0.1c0.1,0,0.1,0,0.2,0.1
						C-10.8,6.3-10.8,6.4-10.9,6.6"/>
				</g>
				<g id="g30_1_" transform="translate(18.457,20.2031)">
					<path id="path32_1_" fill="#664500" d="M-6.8,6.6c0,0.1-0.9,2.1-2.8,2.1c-1.9,0-2.8-2-2.8-2.1c-0.1-0.1,0-0.3,0.1-0.4
						c0.1-0.1,0.3-0.1,0.4,0c0,0,0.8,0.6,2.3,0.6c1.5,0,2.3-0.6,2.3-0.6c0.1,0,0.1-0.1,0.2-0.1c0.1,0,0.1,0,0.2,0.1
						C-6.8,6.3-6.7,6.4-6.8,6.6"/>
				</g>
			</g>
		</g>
	</g>
</g>
</svg>
