<?xml version="1.0" encoding="utf-8"?>
<!-- Generator: Adobe Illustrator 18.1.1, SVG Export Plug-In . SVG Version: 6.00 Build 0)  -->
<svg version="1.1" id="svg2" xmlns:svg="http://www.w3.org/2000/svg"
	 xmlns="http://www.w3.org/2000/svg" xmlns:xlink="http://www.w3.org/1999/xlink" x="0px" y="0px" viewBox="0 0 30 30"
	 enable-background="new 0 0 30 30" xml:space="preserve">
<g id="g12" transform="matrix(1.25,0,0,-1.25,0,47.5)">
	<g id="g14">
		<g>
			<g>
				<defs>
					<rect id="SVGID_1_" x="-6.8" y="7.2" width="37.5" height="37.5"/>
				</defs>
				<clipPath id="SVGID_2_">
					<use xlink:href="#SVGID_1_"  overflow="visible"/>
				</clipPath>
				<g clip-path="url(#SVGID_2_)">
					<path fill="#D6B074" d="M17.7,34.5c-1.2,0-2.4,0-3.8-0.6c-1.5-0.6-12.3-6.4-13-10.1c-0.6-2.9,2.6-4.5,4.3-4.9
						c3.4-0.8,7.4-0.3,9.6,1.5c1.4,1.2,8.6,9.5,8.1,11.4C22.3,33.7,20.2,34.5,17.7,34.5z"/>
					<path opacity="0.3" fill="#705C3D" enable-background="new    " d="M2.7,23.5c1.5,2.2,5.4,2.3,7.9,2.5c2.7,0.2,5.4,0.9,6.4,2.9
						c1.2,2.4-0.8,5-0.8,5l0,0l0.4-1.5l-0.5-1.7L12,27.9c0,0-6.4-1.8-6.5-1.8s-2.8-1.3-2.8-1.3S2.5,24,2.7,23.5z"/>
					<path fill="#705C3D" d="M16.2,34.1L16.2,34.1c0,0-0.1,0.1-0.1,0c-0.1,0,0-0.1,0-0.1c0.6-1.1,0.5-1.8,0.1-2.6
						c-0.3-0.6-1-2.5-7.6-4.2l0,0c-2.9-0.7-5.2-1.3-6.1-2.8c-0.3-0.6-0.4-1.3-0.2-2.1c0.3-1.1,1.4-2,3.2-2.6c0.9-0.3,1.9-0.4,3-0.4
						c1.5,0,2.9,0.3,3.8,1.1c0.7,0.6,0.8,1.2,0.4,1.8c-0.4,0.5-0.9,0.9-1.5,1.2c-0.8,0.4-1.9,0.4-2.8,0.4c-1.7,0-3.1-0.5-3.1-1.2
						s1.4-1.2,3.1-1.2c1.6,0,2.5,0.4,2.9,0.8c0.3-0.2,0.7-0.9,0.2-1.4c-1.2-1-3.4-1.2-5.7-0.5c-1.5,0.5-2.5,1.3-2.8,2.2
						c-0.2,0.7-0.2,1.2,0.1,1.7c0.7,1.2,3,1.8,5.7,2.5l0,0c2.9,0.8,7,2,8,4.5C17.1,32.2,17,33,16.2,34.1z"/>
				</g>
			</g>
		</g>
	</g>
</g>
</svg>
