<?xml version="1.0" encoding="utf-8"?>
<!-- Generator: Adobe Illustrator 18.1.1, SVG Export Plug-In . SVG Version: 6.00 Build 0)  -->
<svg version="1.1" id="svg2" xmlns:svg="http://www.w3.org/2000/svg"
	 xmlns="http://www.w3.org/2000/svg" xmlns:xlink="http://www.w3.org/1999/xlink" x="0px" y="0px" viewBox="0 0 30 30"
	 enable-background="new 0 0 30 30" xml:space="preserve">
<g>
	<path d="M20,12.3c2.6,0,4.7-2.1,4.7-4.7S22.6,3,20,3c-2.6,0-4.7,2.1-4.7,4.7S17.4,12.3,20,12.3z M10,25.7H4.1l-1.5-6.2
		c-0.1-0.4-0.4-0.6-0.8-0.5c-0.4,0.1-0.6,0.4-0.5,0.8l1.6,6.7C3,26.8,3.3,27,3.6,27H10c0.4,0,0.7-0.3,0.7-0.7
		C10.7,26,10.4,25.7,10,25.7z M28.7,24.2c0-6.2-3.1-9.4-3.4-9.8c-0.5-0.5-1.2-0.8-1.9-0.8c0,0-0.1,0-0.1,0c-0.6,0-1.1,0.2-1.5,0.6
		l-5.8,6.1H7.3c-1.1,0-2,0.9-2,2c0,1.1,0.9,2,2,2h9.3c0.2,0,0.3,0,0.5-0.1c0,0,0.1,0,0.1,0c0.1,0,0.3-0.1,0.4-0.2c0,0,0,0,0.1,0
		l5.2-3c0.3,0.9,0.5,2,0.5,3.3v1.3c0,0.7,0.6,1.3,1.3,1.3h2.7c0.7,0,1.3-0.6,1.3-1.3L28.7,24.2L28.7,24.2z"/>
</g>
</svg>
