<?xml version="1.0" encoding="utf-8"?>
<!-- Generator: Adobe Illustrator 18.1.1, SVG Export Plug-In . SVG Version: 6.00 Build 0)  -->
<svg version="1.1" id="svg2" xmlns:svg="http://www.w3.org/2000/svg"
	 xmlns="http://www.w3.org/2000/svg" xmlns:xlink="http://www.w3.org/1999/xlink" x="0px" y="0px" viewBox="0 0 30 30"
	 enable-background="new 0 0 30 30" xml:space="preserve">
<g id="g12" transform="matrix(1.25,0,0,-1.25,0,47.5)">
	<g id="g14">
		<g>
			<defs>
				<rect id="SVGID_1_" x="-3" y="11" width="30" height="30"/>
			</defs>
			<clipPath id="SVGID_2_">
				<use xlink:href="#SVGID_1_"  overflow="visible"/>
			</clipPath>
			<g id="g16" clip-path="url(#SVGID_2_)">
				<g id="g22" transform="translate(36,20)">
					<path id="path24" fill="#FFCC4D" d="M-13.3,6.6c0-5.9-4.8-10.7-10.7-10.7c-5.9,0-10.7,4.8-10.7,10.7c0,5.9,4.8,10.7,10.7,10.7
						C-18.1,17.4-13.3,12.6-13.3,6.6"/>
				</g>
				<g id="g26" transform="translate(28.335,11.3711)">
					<path id="path28" fill="#664500" d="M-10.4,9.8c-0.1,0.1-0.3,0.1-0.4,0c0,0-2.5-1.8-5.5-1.8c-3,0-5.5,1.8-5.5,1.8
						c-0.1,0.1-0.3,0.1-0.4,0c-0.1-0.1-0.1-0.3-0.1-0.4c0.1-0.1,2-3.3,6-3.3s5.9,3.2,6,3.3C-10.3,9.5-10.3,9.7-10.4,9.8"/>
				</g>
				<g id="g30" transform="translate(16.707,18.707)">
					<path id="path32" fill="#664500" d="M-6.2,7.1c-2.1,2.1-5.4,2.1-5.5,2.1c-0.3,0-0.6-0.3-0.6-0.6c0-0.3,0.3-0.6,0.6-0.6
						c0,0,1.2,0,2.5-0.5c-0.4-0.4-0.6-1-0.6-1.7c0-1.2,0.7-2.2,1.6-2.2s1.6,1,1.6,2.2c0,0.1,0,0.2,0,0.3c0,0,0,0,0,0
						c0.2,0,0.3,0.1,0.4,0.2C-5.9,6.5-5.9,6.9-6.2,7.1"/>
				</g>
				<g id="g34" transform="translate(30,22)">
					<path id="path36" fill="#664500" d="M-11.1,5.9c-0.1,0-3.4,0-5.5-2.1c-0.2-0.2-0.2-0.6,0-0.9c0.1-0.1,0.3-0.2,0.4-0.2
						c0,0,0,0,0,0c0-0.1,0-0.2,0-0.3c0-1.2,0.7-2.2,1.6-2.2s1.6,1,1.6,2.2c0,0.7-0.2,1.3-0.6,1.7c1.3,0.5,2.5,0.5,2.5,0.5
						c0.3,0,0.6,0.3,0.6,0.6C-10.4,5.6-10.7,5.9-11.1,5.9"/>
				</g>
			</g>
		</g>
	</g>
</g>
</svg>
