<?xml version="1.0" encoding="utf-8"?>
<!-- Generator: Adobe Illustrator 18.1.1, SVG Export Plug-In . SVG Version: 6.00 Build 0)  -->
<svg version="1.1" id="svg2" xmlns:svg="http://www.w3.org/2000/svg"
	 xmlns="http://www.w3.org/2000/svg" xmlns:xlink="http://www.w3.org/1999/xlink" x="0px" y="0px" viewBox="0 0 30 30"
	 enable-background="new 0 0 30 30" xml:space="preserve">
<g id="g12" transform="matrix(1.25,0,0,-1.25,0,47.5)">
	<g id="g14">
		<g>
			<defs>
				<rect id="SVGID_1_" x="-3" y="11" width="30" height="30"/>
			</defs>
			<clipPath id="SVGID_2_">
				<use xlink:href="#SVGID_1_"  overflow="visible"/>
			</clipPath>
			<g id="g16" clip-path="url(#SVGID_2_)">
				<g id="g22" transform="translate(36,20)">
					<path id="path24" fill="#FFCC4D" d="M-13.3,6.6c0-5.9-4.8-10.7-10.7-10.7c-5.9,0-10.7,4.8-10.7,10.7c0,5.9,4.8,10.7,10.7,10.7
						C-18.1,17.4-13.3,12.6-13.3,6.6"/>
				</g>
				<g id="g26" transform="translate(26,12)">
					<path id="path28" fill="#664500" d="M-8.5,9.6h-8.8c-0.3,0-0.6,0.3-0.6,0.6c0,0.3,0.3,0.6,0.6,0.6h8.8c0.3,0,0.6-0.3,0.6-0.6
						C-7.9,9.9-8.2,9.6-8.5,9.6"/>
				</g>
				<g id="g30" transform="translate(16,20)">
					<path id="path32" fill="#664500" d="M-4.8,6.6h-4.4c-0.3,0-0.6,0.3-0.6,0.6s0.3,0.6,0.6,0.6h4.4c0.3,0,0.6-0.3,0.6-0.6
						S-4.5,6.6-4.8,6.6"/>
				</g>
				<g id="g34" transform="translate(29,20)">
					<path id="path36" fill="#664500" d="M-9.6,6.6h-4.4c-0.3,0-0.6,0.3-0.6,0.6s0.3,0.6,0.6,0.6h4.4C-9.3,7.9-9,7.6-9,7.3
						S-9.3,6.6-9.6,6.6"/>
				</g>
				<path fill="#664500" d="M3.8,16.7c0.2-0.4,0.4-0.7,0.6-1.1h1C5.1,16,4.8,16.5,4.5,17c-0.1,0.2-0.2,0.4-0.2,0.4l-3.1,6.6
					c0,0-0.5,0.8,0.4,1.2c0.2,0.1,0.3,0.1,0.4,0.1c0.6,0,0.8-0.6,0.8-0.6l1.9-4.1c0.1,0.1,0.6,0.4,0.7,0.5l-2.6,5.7
					c0,0-0.5,0.8,0.4,1.2c0.2,0.1,0.3,0.1,0.4,0.1c0.6,0,0.8-0.6,0.8-0.6l2.5-5.4c0.1,0.1,0.5,0.3,0.6,0.3l-2.9,6.2
					c0,0-0.5,0.8,0.4,1.2c0.2,0.1,0.3,0.1,0.4,0.1c0.6,0,0.8-0.6,0.8-0.6L9,23.3c0.2,0.1,0.6,0.3,0.8,0.3l-2.7,5.8
					c0,0-0.5,0.8,0.4,1.2c0.2,0.1,0.3,0.1,0.4,0.1c0.6,0,0.8-0.6,0.8-0.6l2.9-6.1l0.2-0.5l0.1-0.2l0.3-0.7c0.1,0.1,0.3,0.2,0.4,0.2
					l-0.1,3.6c0,0-0.1,1,0.9,1.1c0.1,0,0.1,0,0.1,0c0.8,0,0.9-0.9,0.9-0.9l0.4-2.5c0.2-1,0.3-2,0.6-3c0.6-2,0.1-4.1-1.2-5.6h1
					c1.2,1.6,1.6,3.8,1,5.8c-0.3,0.9-0.4,1.8-0.6,2.9l-0.4,2.5c-0.1,0.6-0.6,1.5-1.7,1.5c-0.1,0-0.2,0-0.2,0
					c-1.3-0.1-1.6-1.2-1.6-1.9l0-0.9l-2.3,5c-0.2,0.4-0.6,1.1-1.5,1.1c-0.2,0-0.5-0.1-0.8-0.2c-0.5-0.2-0.7-0.5-0.8-0.8
					C6,30.8,5.7,31,5.3,31c-0.2,0-0.5-0.1-0.8-0.2c-0.6-0.3-0.8-0.7-0.9-1c-0.1-0.3-0.1-0.5,0-0.7c0,0-0.1,0-0.1,0
					c-0.2,0-0.5-0.1-0.8-0.2c-0.6-0.3-0.8-0.7-0.9-1c-0.2-0.6,0.1-1.1,0.2-1.3l0.2-0.3c-0.1,0-0.1,0-0.2,0c-0.2,0-0.5-0.1-0.8-0.2
					c-0.6-0.3-0.8-0.7-0.9-1c-0.2-0.6,0.1-1.1,0.2-1.3l3.1-6.6L3.8,16.7z"/>
				<path fill="#FFCC4D" d="M4.5,17c0.2-0.5,0.6-1,0.9-1.4h8.8c1.3,1.5,1.8,3.6,1.2,5.6c-0.3,1-0.5,2-0.6,3l-0.4,2.5
					c0,0-0.1,1-1.1,0.9c-1-0.1-0.9-1.1-0.9-1.1l0.1-3.6c-0.1-0.1-0.3-0.2-0.4-0.2l-0.3,0.7l-0.1,0.2L11.5,24l-2.9,6.1
					c0,0-0.3,0.9-1.2,0.5c-0.9-0.4-0.4-1.2-0.4-1.2l2.7-5.8c-0.2-0.1-0.6-0.3-0.8-0.3l-2.9,6.2c0,0-0.3,0.9-1.2,0.5
					c-0.9-0.4-0.4-1.2-0.4-1.2l2.9-6.2c-0.1-0.1-0.5-0.3-0.6-0.3l-2.5,5.4c0,0-0.3,0.9-1.2,0.5c-0.9-0.4-0.4-1.2-0.4-1.2l2.6-5.7
					c-0.1-0.1-0.6-0.4-0.7-0.5l-1.9,4.1c0,0-0.3,0.9-1.2,0.5c-0.9-0.4-0.4-1.2-0.4-1.2l3.1-6.6C4.3,17.4,4.5,17.1,4.5,17z"/>
			</g>
		</g>
	</g>
</g>
</svg>
