<?xml version="1.0" encoding="utf-8"?>
<!-- Generator: Adobe Illustrator 18.1.1, SVG Export Plug-In . SVG Version: 6.00 Build 0)  -->
<svg version="1.1" id="svg2" xmlns:svg="http://www.w3.org/2000/svg"
	 xmlns="http://www.w3.org/2000/svg" xmlns:xlink="http://www.w3.org/1999/xlink" x="0px" y="0px" viewBox="0 0 30 30"
	 enable-background="new 0 0 30 30" xml:space="preserve">
<g id="g12" transform="matrix(1.25,0,0,-1.25,0,47.5)">
	<g id="g14">
		<g>
			<defs>
				<rect id="SVGID_1_" x="-3" y="11" width="30" height="30"/>
			</defs>
			<clipPath id="SVGID_2_">
				<use xlink:href="#SVGID_1_"  overflow="visible"/>
			</clipPath>
			<g id="g16" clip-path="url(#SVGID_2_)">
				<g id="g22" transform="translate(37,19)">
					<path id="path24" fill="#FFCC4D" d="M-13.6,7c0-6.3-5.1-11.4-11.4-11.4c-6.3,0-11.4,5.1-11.4,11.4c0,6.3,5.1,11.4,11.4,11.4
						C-18.7,18.4-13.6,13.3-13.6,7"/>
				</g>
				<g id="g34" transform="translate(31,20.5)">
					<path id="path36" fill="#F5F8FA" d="M-10.9,6.4c0-2.2-1.8-4-4-4s-4,1.8-4,4s1.8,4,4,4S-10.9,8.7-10.9,6.4"/>
				</g>
				<g id="g38" transform="translate(18,20.5)">
					<path id="path40" fill="#F5F8FA" d="M-7.3,6.4c0-1.5-1.3-2.8-2.8-2.8s-2.8,1.3-2.8,2.8s1.3,2.8,2.8,2.8S-7.3,8-7.3,6.4"/>
				</g>
				<g id="g42" transform="translate(15,20.5)">
					<path id="path44" fill="#664500" d="M-5.5,6.4c0-0.9-0.7-1.6-1.6-1.6s-1.6,0.7-1.6,1.6C-8.7,7.3-8,8-7.1,8S-5.5,7.3-5.5,6.4"/>
				</g>
				<g id="g46" transform="translate(28,20.5)">
					<path id="path48" fill="#664500" d="M-10.3,6.4c0-0.9-0.7-1.6-1.6-1.6s-1.6,0.7-1.6,1.6c0,0.9,0.7,1.6,1.6,1.6
						S-10.3,7.3-10.3,6.4"/>
				</g>
				<g id="g50" transform="translate(23,7)">
					<path id="path52" fill="#664500" d="M-8.5,11.4h-5.1c-0.3,0-0.6,0.3-0.6,0.6s0.3,0.6,0.6,0.6h5.1c0.3,0,0.6-0.3,0.6-0.6
						S-8.1,11.4-8.5,11.4"/>
				</g>
				<g id="g54" transform="translate(31.001,26)">
					<path id="path56" fill="#664500" d="M-11.4,5.2c-0.2,0-0.4,0.1-0.5,0.3c-1.7,2.2-3.8,2.3-3.9,2.3c-0.3,0-0.6,0.3-0.6,0.6
						c0,0.3,0.3,0.6,0.6,0.6c0.1,0,2.9,0,4.9-2.8c0.2-0.3,0.2-0.7-0.1-0.9C-11.2,5.3-11.3,5.2-11.4,5.2"/>
				</g>
				<g id="g58" transform="translate(6.999,26)">
					<path id="path60" fill="#664500" d="M-2.6,3.6c-0.1,0-0.3,0-0.4,0.1C-3.2,4-3.3,4.4-3.1,4.6C-1,7.4,1.7,7.4,1.8,7.4
						c0.3,0,0.6-0.3,0.6-0.6c0-0.3-0.3-0.6-0.6-0.6c-0.1,0-2.3-0.1-3.9-2.3C-2.2,3.7-2.4,3.6-2.6,3.6"/>
				</g>
			</g>
		</g>
	</g>
</g>
</svg>
