<?xml version="1.0" encoding="utf-8"?>
<!-- Generator: Adobe Illustrator 18.1.1, SVG Export Plug-In . SVG Version: 6.00 Build 0)  -->
<svg version="1.1" id="svg2" xmlns:svg="http://www.w3.org/2000/svg"
	 xmlns="http://www.w3.org/2000/svg" xmlns:xlink="http://www.w3.org/1999/xlink" x="0px" y="0px" viewBox="0 0 30 30"
	 enable-background="new 0 0 30 30" xml:space="preserve">
<g id="g12" transform="matrix(1.25,0,0,-1.25,0,47.5)">
	<g id="g14">
		<g>
			<defs>
				<rect id="SVGID_1_" x="-3" y="11" width="30" height="30"/>
			</defs>
			<clipPath id="SVGID_2_">
				<use xlink:href="#SVGID_1_"  overflow="visible"/>
			</clipPath>
			<g id="g16" clip-path="url(#SVGID_2_)">
				<path fill="#FFCC4D" d="M21.7,16.4c0.7,1.4,1.1,3,1.1,4.6c0,5.9-4.8,10.7-10.7,10.7C6.1,31.8,1.3,27,1.3,21
					c0-1.7,0.4-3.2,1.1-4.6H21.7z"/>
				<g id="g26" transform="translate(15,21.5)">
					<path id="path28" fill="#664500" d="M-5.5,0.5c0-1.2-0.7-2.2-1.6-2.2s-1.6,1-1.6,2.2c0,1.2,0.7,2.2,1.6,2.2S-5.5,1.7-5.5,0.5"
						/>
				</g>
				<g id="g30" transform="translate(28,21.5)">
					<path id="path32" fill="#664500" d="M-10.3,0.5c0-1.2-0.7-2.2-1.6-2.2s-1.6,1-1.6,2.2c0,1.2,0.7,2.2,1.6,2.2
						S-10.3,1.7-10.3,0.5"/>
				</g>
				<circle cx="12" cy="26.8" r="2"/>
				<path d="M15,36.4c-0.6,0.5-1.5,0.8-2.6,0.8c-1.3,0-2.6-0.3-3.8-1l0.9-1.8c1,0.5,1.9,0.8,2.7,0.8c0.5,0,0.8-0.1,1.1-0.3
					c0.3-0.2,0.4-0.4,0.4-0.8c0-0.3-0.1-0.6-0.3-0.8c-0.2-0.3-0.5-0.6-1.1-1c-0.6-0.4-1-0.8-1.2-1.2c-0.2-0.4-0.3-0.8-0.3-1.3v-0.6
					h2.1v0.5c0,0.3,0.1,0.6,0.2,0.8c0.1,0.2,0.5,0.5,1,0.9c0.7,0.5,1.3,1,1.5,1.4c0.3,0.4,0.4,0.9,0.4,1.5
					C16,35.2,15.7,35.9,15,36.4z"/>
			</g>
		</g>
	</g>
</g>
</svg>
