<?xml version="1.0" encoding="utf-8"?>
<!-- Generator: Adobe Illustrator 18.1.1, SVG Export Plug-In . SVG Version: 6.00 Build 0)  -->
<svg version="1.1" id="svg2" xmlns:svg="http://www.w3.org/2000/svg"
	 xmlns="http://www.w3.org/2000/svg" xmlns:xlink="http://www.w3.org/1999/xlink" x="0px" y="0px" viewBox="0 0 30 30"
	 enable-background="new 0 0 30 30" xml:space="preserve">
<g id="g12" transform="matrix(1.25,0,0,-1.25,0,47.5)">
	<g id="g14">
		<g>
			<defs>
				<rect id="SVGID_1_" x="-3" y="11" width="30" height="30"/>
			</defs>
			<clipPath id="SVGID_2_">
				<use xlink:href="#SVGID_1_"  overflow="visible"/>
			</clipPath>
			<g id="g16" clip-path="url(#SVGID_2_)">
				<g id="g22" transform="translate(37,19)">
					<path id="path24" fill="#FFCC4D" d="M-13.6,7c0-6.3-5.1-11.4-11.4-11.4c-6.3,0-11.4,5.1-11.4,11.4c0,6.3,5.1,11.4,11.4,11.4
						C-18.7,18.4-13.6,13.3-13.6,7"/>
				</g>
				<g id="g34_1_" transform="translate(13,10)">
					<path id="path36_1_" fill="#664500" d="M-6.5,11c3.4-2.2,8.3-0.4,8.4-1.1C2,8.7-4.9,8-6.5,11"/>
				</g>
				<g id="g34" transform="translate(31,20.5)">
					<path id="path36" fill="#F5F8FA" d="M-9.8,9c0-1.9-1.6-3.5-3.5-3.5s-3.5,1.6-3.5,3.5s1.6,3.5,3.5,3.5S-9.8,11-9.8,9"/>
				</g>
				<g id="g38" transform="translate(18,20.5)">
					<path id="path40" fill="#F5F8FA" d="M-5,9c0-1.9-1.6-3.5-3.5-3.5S-12,7.1-12,9s1.6,3.5,3.5,3.5S-5,11-5,9"/>
				</g>
				<g id="g42" transform="translate(15,20.5)">
					<path id="path44" fill="#664500" d="M-2.6,10.4c0-0.9-0.7-1.6-1.6-1.6s-1.6,0.7-1.6,1.6c0,0.9,0.7,1.6,1.6,1.6
						S-2.6,11.3-2.6,10.4"/>
				</g>
				<g id="g46" transform="translate(28,20.5)">
					<path id="path48" fill="#664500" d="M-7.4,10.4c0-0.9-0.7-1.6-1.6-1.6s-1.6,0.7-1.6,1.6c0,0.9,0.7,1.6,1.6,1.6
						S-7.4,11.3-7.4,10.4"/>
				</g>
			</g>
		</g>
	</g>
</g>
</svg>
