<?xml version="1.0" encoding="utf-8"?>
<!-- Generator: Adobe Illustrator 18.1.1, SVG Export Plug-In . SVG Version: 6.00 Build 0)  -->
<svg version="1.1" id="svg2" xmlns:svg="http://www.w3.org/2000/svg"
	 xmlns="http://www.w3.org/2000/svg" xmlns:xlink="http://www.w3.org/1999/xlink" x="0px" y="0px" viewBox="0 0 30 30"
	 enable-background="new 0 0 30 30" xml:space="preserve">
<g id="g12" transform="matrix(1.25,0,0,-1.25,0,47.5)">
	<g id="g14">
		<g>
			<defs>
				<rect id="SVGID_1_" x="-3" y="11" width="30" height="30"/>
			</defs>
			<clipPath id="SVGID_2_">
				<use xlink:href="#SVGID_1_"  overflow="visible"/>
			</clipPath>
			<g id="g16" clip-path="url(#SVGID_2_)">
				<g id="g22" transform="translate(36,20)">
					<path id="path24" fill="#FFCC4D" d="M-13.3,6.6c0-5.9-4.8-10.7-10.7-10.7c-5.9,0-10.7,4.8-10.7,10.7c0,5.9,4.8,10.7,10.7,10.7
						C-18.1,17.4-13.3,12.6-13.3,6.6"/>
				</g>
				<g id="g26" transform="translate(15,21.5)">
					<path id="path28" fill="#664500" d="M-5.5,6.1c0-1.2-0.7-2.2-1.6-2.2s-1.6,1-1.6,2.2c0,1.2,0.7,2.2,1.6,2.2S-5.5,7.3-5.5,6.1"
						/>
				</g>
				<g id="g30" transform="translate(28,21.5)">
					<path id="path32" fill="#664500" d="M-10.3,6.1c0-1.2-0.7-2.2-1.6-2.2s-1.6,1-1.6,2.2c0,1.2,0.7,2.2,1.6,2.2
						S-10.3,7.3-10.3,6.1"/>
				</g>
				<g id="g34" transform="translate(26,12)">
					<path id="path36" fill="#664500" d="M-9.6,10.7l-8.6-2.2c-0.3-0.1-0.7,0.1-0.8,0.5c-0.1,0.3,0.1,0.7,0.5,0.8l8.6,2.2
						c0.3,0.1,0.7-0.1,0.8-0.5C-9,11.1-9.2,10.8-9.6,10.7"/>
				</g>
			</g>
		</g>
	</g>
</g>
</svg>
