<?xml version="1.0" encoding="utf-8"?>
<!-- Generator: Adobe Illustrator 18.1.1, SVG Export Plug-In . SVG Version: 6.00 Build 0)  -->
<svg version="1.1" id="svg2" xmlns:svg="http://www.w3.org/2000/svg"
	 xmlns="http://www.w3.org/2000/svg" xmlns:xlink="http://www.w3.org/1999/xlink" x="0px" y="0px" viewBox="0 0 30 30"
	 enable-background="new 0 0 30 30" xml:space="preserve">
<g>
	<g id="glass">
		<path fill="#ADD2E0" d="M27,26.2c0,0.4-0.3,0.8-0.8,0.8H3.8C3.3,27,3,26.7,3,26.2V3.8C3,3.3,3.3,3,3.8,3h22.5
			C26.7,3,27,3.3,27,3.8V26.2z"/>
	</g>
	<g id="white_russian">
		<path fill="#D9BB8A" d="M4.5,9v10.5C4.5,22,6.5,24,9,24h12c2.5,0,4.5-2,4.5-4.5V9H4.5z"/>
	</g>
	<g id="ice_cubes">
		<path opacity="0.5" fill="#F5EEE1" enable-background="new    " d="M20.9,14.9c-0.7,0.7-1.8,0.7-2.5,0l-2.5-2.5
			c-0.7-0.7-0.7-1.8,0-2.5l2.5-2.5c0.7-0.7,1.8-0.7,2.5,0l2.5,2.5c0.7,0.7,0.7,1.8,0,2.5L20.9,14.9z"/>
		<path opacity="0.5" fill="#F5EEE1" enable-background="new    " d="M17.8,15.8c-0.2,1-1.2,1.6-2.2,1.3l-3.5-0.8
			c-1-0.2-1.6-1.2-1.3-2.2l0.8-3.5c0.2-1,1.2-1.6,2.2-1.3l3.5,0.8c1,0.2,1.6,1.2,1.3,2.2L17.8,15.8z"/>
	</g>
	<g id="glow_1_">
		<rect x="7.5" y="3" opacity="0.5" fill="#FFFFFF" enable-background="new    " width="4.5" height="24"/>
	</g>
</g>
</svg>
