<?xml version="1.0" encoding="utf-8"?>
<!-- Generator: Adobe Illustrator 18.1.1, SVG Export Plug-In . SVG Version: 6.00 Build 0)  -->
<svg version="1.1" id="svg2" xmlns:svg="http://www.w3.org/2000/svg"
	 xmlns="http://www.w3.org/2000/svg" xmlns:xlink="http://www.w3.org/1999/xlink" x="0px" y="0px" viewBox="0 0 30 30"
	 enable-background="new 0 0 30 30" xml:space="preserve">
<g id="g12" transform="matrix(1.25,0,0,-1.25,0,47.5)">
	<g id="g14">
		<g>
			<defs>
				<rect id="SVGID_1_" x="-3" y="11" width="30" height="30"/>
			</defs>
			<clipPath id="SVGID_2_">
				<use xlink:href="#SVGID_1_"  overflow="visible"/>
			</clipPath>
			<path clip-path="url(#SVGID_2_)" d="M21.6,30.8c-1.7,4-5.8,6.6-10.1,6.3C7.1,37,3.3,33.9,2,29.8c-1.3-4.1,0.3-8.7,3.7-11.3
				c3.5-2.6,8.3-2.8,12-0.4C21.8,20.8,23.5,26.3,21.6,30.8z M4.1,21.8c-1,1.5-1.5,3.2-1.5,5c0,1.3,0.3,2.6,0.8,3.8l4.5-12.2
				C6.3,19.2,5.1,20.3,4.1,21.8z M12,17.4c-0.9,0-1.8,0.1-2.6,0.4l2.8,8.2l2.9-7.9c0,0,0-0.1,0.1-0.1C14.1,17.6,13.1,17.4,12,17.4z
				 M13.3,31.2c0.4,0,0.7,0,1.1,0.1c0.2,0,0.3,0.1,0.3,0.2c0.1,0.1,0,0.3,0,0.4c-0.1,0.1-0.2,0.2-0.4,0.2l-0.4,0c-0.3,0-0.6,0-1-0.1
				c-0.4,0-0.8,0-1.1,0c-0.6,0-1.4,0-2.5,0.1c-0.2,0-0.3-0.1-0.3-0.2c-0.1-0.1-0.1-0.3,0-0.4c0.1-0.1,0.2-0.2,0.3-0.2l1-0.1l1.5-4
				l-2-6.1L6.3,31.2c0.4,0,0.7,0,1.1,0.1c0.2,0,0.3,0.1,0.3,0.2c0.1,0.1,0,0.3,0,0.4C7.6,32,7.4,32.1,7.3,32l-0.4,0
				c-0.3,0-0.6,0-1-0.1c-0.4,0-0.8,0-1.1,0H4.2c0.6,0.9,1.2,1.6,2,2.2c0.8,0.6,1.7,1.1,2.7,1.5c1,0.4,2,0.5,3.1,0.5
				c1.2,0,2.3-0.2,3.4-0.7c1.1-0.4,2-1,2.9-1.8c-0.1,0-0.1,0-0.1,0c-0.4,0-0.8-0.2-1.1-0.5c-0.3-0.3-0.5-0.7-0.5-1.2
				c0-0.1,0-0.2,0-0.2s0-0.2,0.1-0.3c0-0.1,0-0.2,0.1-0.2c0-0.1,0.1-0.1,0.1-0.2s0.1-0.2,0.1-0.2c0,0,0.1-0.1,0.1-0.2
				s0.1-0.2,0.1-0.2c0,0,0.1-0.1,0.2-0.3c0.1-0.1,0.1-0.2,0.1-0.2c0.2-0.3,0.3-0.5,0.4-0.7c0.1-0.2,0.2-0.5,0.3-0.8
				c0.1-0.3,0.1-0.7,0.1-1.1c0-0.2,0-0.4,0-0.6s-0.1-0.4-0.2-0.7c-0.1-0.3-0.1-0.5-0.2-0.7c-0.1-0.2-0.1-0.5-0.3-0.9l-0.1-0.2
				l-0.9-3.1L13.3,31.2z M20.1,22.1c-0.8-1.4-2-2.6-3.4-3.4l2.9,8.3c0.5,1.2,0.7,2.3,0.7,3.4c0,0.3,0,0.7-0.1,1
				c0.8-1.4,1.1-2.9,1.1-4.5C21.4,25.1,20.9,23.5,20.1,22.1z"/>
		</g>
	</g>
</g>
</svg>
